<svg width="26" height="35" viewBox="0 0 26 35" fill="none" xmlns="http://www.w3.org/2000/svg">
<path fill-rule="evenodd" clip-rule="evenodd" d="M10.1585 6.59098C9.657 5.04658 9.20541 3.48468 8.82432 1.89841C10.2455 0.269943 15.7383 0.486362 17.318 1.87297L15.8554 5.50333C16.642 4.42455 16.9064 3.98171 17.3756 3.38068C17.5724 3.51579 17.7588 3.66671 17.9331 3.83207C18.3492 4.22529 18.7208 4.65978 18.7959 5.26545C18.8446 5.65821 18.7371 6.05726 18.4023 6.46519L15.0467 10.5455C14.6148 10.4715 14.1927 10.3634 13.7831 10.2113C13.9734 9.74378 14.2029 9.2294 14.3932 8.76179L13.1716 10.1393C11.8989 9.85898 10.8754 10.0262 9.92165 10.5529L6.51861 6.28898C6.31645 6.03467 6.22444 5.78036 6.22521 5.52605C6.22844 4.49536 7.69843 3.60584 8.47115 3.26913L10.1585 6.59098ZM9.87204 22.5529L10.3019 21.5421H11.923C11.8206 21.1834 11.4189 20.9816 11.0824 20.9816H9.87204L10.3019 19.9707H14.9422L14.5123 20.9816H13.3915C13.5402 21.1007 13.6996 21.346 13.7274 21.5421H14.9422L14.5123 22.5529H13.6335C13.3498 23.3069 12.4847 23.819 11.7469 23.9299L14.1852 26.5504H12.2574L10.0833 24.06V23.1319H11.0457C11.3732 23.1319 11.781 22.8917 11.8849 22.5529H9.87204ZM14.5193 14.2947L13.8552 11.1236C16.6998 11.6759 21.2594 17.7171 22.7328 20.4639C23.4848 21.8658 24.1434 23.4103 24.6827 25.137C25.757 29.3157 24.7222 33.2249 20.3802 34.1354C17.6596 34.706 12.5859 34.7464 9.72476 34.5919C6.64887 34.4257 1.88885 34.4308 0.645444 31.1337C-1.36141 25.8118 2.31543 19.4718 5.66797 15.5914C6.10909 15.0808 6.56524 14.6049 7.0372 14.1657C8.25668 13.0455 9.57165 11.7163 11.1414 11.1637L9.62521 14.1111L11.8273 11.0632H12.9877L14.5193 14.2947ZM6.90782 20.1393C8.52457 16.9684 12.2969 15.7663 15.3342 17.4542C18.3714 19.142 19.5229 23.0803 17.9062 26.2513C16.2894 29.4221 12.5171 30.6243 9.47984 28.9364C6.44253 27.2486 5.29113 23.3102 6.90782 20.1393Z" fill="#424242"/>
</svg>
