<svg version="1.2" xmlns="http://www.w3.org/2000/svg" viewBox="0 0 94 90" width="94" height="90">
	<title>support_icon-svg</title>
	<style>
		tspan { white-space:pre } 
		.s0 { fill: #000000 } 
		.t1 { font-size: 5px;fill: #000000;font-family: "' Helvetica  Neue'" } 
	</style>
	<path id="Layer" class="s0" d="m84.4 36.5h-4.7c-0.2-4-1-7.8-2.5-11.4-1.7-3.9-4.1-7.4-7.1-10.4-3-3-6.5-5.4-10.4-7-4-1.7-8.3-2.6-12.7-2.6-4.4 0-8.7 0.9-12.7 2.6-3.9 1.6-7.4 4-10.4 7-3 3-5.4 6.5-7 10.4-1.6 3.6-2.4 7.4-2.6 11.4h-4.7c-3.6 0-6.6 2.9-6.6 6.5v10.1c0 3.6 3 6.6 6.6 6.6h5.7c0.5 0 0.9-0.4 0.9-1v-21.3q0-0.1 0-0.2c0.2-8 3.3-15.5 9-21.2 5.8-5.8 13.6-9 21.8-9 8.2 0 16 3.2 21.8 9 5.7 5.7 8.9 13.2 9 21.2q0 0.1 0 0.2v21.3c0 0.6 0.4 1 0.9 1h3v4c0 8.6-6.9 15.6-15.5 15.6h-12.8v-0.8c0-1.6-1.3-3-2.9-3h-7c-1.6 0-2.9 1.4-2.9 3v3.5c0 1.6 1.3 2.9 2.9 2.9h7c1.6 0 2.9-1.3 2.9-2.9v-0.8h12.8c9.6 0 17.4-7.9 17.4-17.5v-4h0.8c3.7 0 6.6-3 6.6-6.6v-10.1c0-3.6-2.9-6.5-6.6-6.5z"/>
	<path id="Layer" fill-rule="evenodd" class="s0" d="m41.7 63.3c-4.1-1.2-7.8-3.6-10.5-7-2.8-3.6-4.3-7.9-4.3-12.4 0-11.1 9-20.1 20.1-20.1 11.1 0 20.1 9 20.1 20.1 0 4.5-1.5 8.8-4.3 12.4-2.7 3.4-6.4 5.8-10.5 7l-4.5 6.7c-0.2 0.3-0.5 0.4-0.8 0.4-0.3 0-0.6-0.1-0.8-0.4zm16.6-18.9c0-1-0.8-1.8-1.8-1.8-1 0-1.9 0.8-1.9 1.8 0 1 0.9 1.9 1.9 1.9 1 0 1.8-0.9 1.8-1.9zm-11.3-1.8c-1 0-1.9 0.8-1.9 1.8 0 1 0.9 1.9 1.9 1.9 1 0 1.8-0.9 1.8-1.9 0-1-0.8-1.8-1.8-1.8zm-11.4 1.8c0 1 0.8 1.9 1.8 1.9 1.1 0 1.9-0.9 1.9-1.9 0-1-0.8-1.8-1.9-1.8-1 0-1.8 0.8-1.8 1.8z"/>
	<text id="Created by Yon ten" style="transform: matrix(1,0,0,1,-3,110)" >
		<tspan x="0" y="0" class="t1">Created by Yon ten
</tspan>
	</text>
	<text id="from the Noun Project" style="transform: matrix(1,0,0,1,-3,115)" >
		<tspan x="0" y="0" class="t1">from the Noun Project
</tspan>
	</text>
</svg>